<svg width="24" height="29" viewBox="0 0 24 29" fill="none" xmlns="http://www.w3.org/2000/svg">
	<path d="M12.0169 28.4696L23.9999 24.3737V13.9478H12.0169V28.4696Z" fill="#365FF6"/>
	<path d="M23.9999 0.57666L18.0084 3.04774L12.0169 0.57666V13.9476H23.9999V0.57666Z" fill="#EDBC2C"/>
	<path d="M12.0169 28.4696L0 24.3737V13.9478H12.0169V28.4696Z" fill="#EDBC2C"/>
	<path d="M12.0169 0.57666L5.99151 3.04774L0 0.57666V13.9476H12.0169V0.57666Z" fill="#365FF6"/>
	<path d="M9.17343 4.74023H2.7757V11.138H9.17343V4.74023Z" fill="#2848BA"/>
	<path d="M16.0113 13.9478H12.0169V17.9421H16.0113V13.9478Z" fill="#2848BA"/>
	<path d="M24 13.9478H20.0057V17.9421H24V13.9478Z" fill="#2848BA"/>
	<path d="M16.0113 21.9023H12.0169V25.8967H16.0113V21.9023Z" fill="#2848BA"/>
	<path fill-rule="evenodd" clip-rule="evenodd" d="M20.0057 25.7274L24 24.3734V21.9023H20.0057V25.7274Z" fill="#2848BA"/>
	<path d="M20.0056 17.9082H16.0113V21.9026H20.0056V17.9082Z" fill="#2848BA"/>
	<path fill-rule="evenodd" clip-rule="evenodd" d="M16.0113 25.897V27.1156L19.464 25.897H16.0113Z" fill="#2848BA"/>
	<path fill-rule="evenodd" clip-rule="evenodd" d="M9.20723 18.9573V18.111H7.81937V16.7231H6.97311V18.111H6.43151V16.7231H5.58525V18.111H5.04363V16.7231H4.19737V18.111H2.80951V18.9573H4.19737V19.4989H2.80951V20.3451H4.19737V20.8867H2.80951V21.733H4.19737V23.1209H5.04363V21.733H5.58525V23.1209H6.43151V21.733H6.97311V23.1209H7.81937V21.733H9.20723V20.8867H7.81937V20.3451H9.20723V19.4989H7.81937V18.9573H9.20723ZM6.97311 19.4989V20.3451V20.8867H6.43151H5.58525H5.04363V20.3451V19.4989V18.9573H5.58525H6.43151H6.97311V19.4989Z" fill="white"/>
	<path d="M18.8886 9.78418H17.1284V11.5444H18.8886V9.78418Z" fill="white"/>
	<path fill-rule="evenodd" clip-rule="evenodd" d="M14.3865 4.74023V5.28184C14.3865 7.24517 16.0113 8.83613 18.0085 8.83613C20.0056 8.83613 21.6305 7.24517 21.6305 5.28184V4.74023H14.3865Z" fill="white"/>
</svg>
