<svg width="24" height="29" viewBox="0 0 24 29" fill="none" xmlns="http://www.w3.org/2000/svg">
	<path d="M12.0169 28.5767L24 24.4469V14.021H12.0169V28.5767Z" fill="#365FF6"/>
	<path d="M23.9999 0.616211L18.0084 3.08729L11.983 0.616211V14.021H23.9999V0.616211Z" fill="#DF6718"/>
	<path d="M11.983 28.5767L0 24.4469V14.021H11.983V28.5767Z" fill="#DF6718"/>
	<path d="M11.983 0.616211L5.99152 3.08729L0 0.616211V14.021H11.983V0.616211Z" fill="#2848BA"/>
	<path d="M0 0.616211V8.40181H11.983V0.616211L5.99152 3.08729L0 0.616211Z" fill="#365FF6"/>
	<path fill-rule="evenodd" clip-rule="evenodd" d="M14.3865 5.35547V5.89709C14.3865 7.86041 16.0113 9.45138 18.0085 9.45138C20.0056 9.45138 21.6305 7.86041 21.6305 5.89709V5.35547H14.3865Z" fill="white"/>
	<path d="M20.1072 10.6699H15.8759V11.8208H20.1072V10.6699Z" fill="white"/>
	<path d="M23.9999 14.021H11.983V16.8983H23.9999V14.021Z" fill="#2848BA"/>
	<path d="M23.9999 19.7754H11.983V22.6527H23.9999V19.7754Z" fill="#2848BA"/>
	<path d="M11.983 25.4961V28.5765L20.9195 25.4961H11.983Z" fill="#2848BA"/>
	<path fill-rule="evenodd" clip-rule="evenodd" d="M10.2906 18.9293H8.46265V20.3172C8.25955 20.4864 8.05644 20.588 7.78564 20.6218C7.31174 20.6557 6.80398 20.3172 6.26237 19.6402C5.55151 18.7601 4.84065 18.3538 4.0621 18.3877C3.55434 18.4215 3.14813 18.6585 2.84348 18.9293H1.69257V20.7572H3.52049V19.4709C3.68974 19.3355 3.92669 19.234 4.16365 19.2001C4.63755 19.1663 5.14531 19.5048 5.68692 20.1818C6.33007 20.9942 7.04093 21.4342 7.75179 21.4342C7.78564 21.4342 7.85334 21.4342 7.88719 21.4342C8.46265 21.4004 8.93656 21.0619 9.24121 20.7572H10.3244V18.9293H10.2906Z" fill="white"/>
</svg>
