<svg width="24" height="28" viewBox="0 0 24 28" fill="none" xmlns="http://www.w3.org/2000/svg">
	<path d="M11.9492 27.8929L23.9322 23.7632V13.3711H11.9492V27.8929Z" fill="#365FF6"/>
	<path d="M23.9323 16.3836C22.8491 16.3836 19.9718 16.3836 17.9407 16.3836C17.9407 14.7249 19.2948 13.4048 20.9196 13.4048C22.5444 13.4048 23.9323 14.7249 23.9323 16.3836Z" fill="#2848BA"/>
	<path d="M20.9196 19.3626C19.8364 19.3626 16.9591 19.3626 14.9281 19.3626C14.9281 17.704 16.2821 16.3838 17.9069 16.3838C19.5994 16.3838 20.9196 17.704 20.9196 19.3626Z" fill="#2848BA"/>
	<path d="M23.9323 16.3838C22.2736 16.3838 20.9534 17.7378 20.9534 19.3626C21.8674 19.3626 22.9506 19.3626 23.9323 19.3626V16.3838Z" fill="#2848BA"/>
	<path d="M14.9281 19.3626C13.8449 19.3626 10.9675 19.3626 8.93652 19.3626C8.93652 17.704 10.2906 16.3838 11.9154 16.3838C13.5402 16.3838 14.9281 17.704 14.9281 19.3626Z" fill="#2848BA"/>
	<path d="M17.9407 16.3838C16.8575 16.3838 13.9802 16.3838 11.9492 16.3838C11.9492 14.7251 13.3032 13.4049 14.928 13.4049C16.5867 13.3711 17.9407 14.7251 17.9407 16.3838Z" fill="#2848BA"/>
	<path d="M23.9323 22.375C22.8491 22.375 19.9718 22.375 17.9407 22.375C17.9407 20.7163 19.2948 19.3623 20.9196 19.3623C22.5444 19.3623 23.9323 20.7163 23.9323 22.375Z" fill="#2848BA"/>
	<path d="M17.8731 22.375C16.2144 22.375 14.8942 23.729 14.8942 25.3538C16.2482 25.3538 17.9746 25.3538 19.2948 25.3538L20.818 24.8461C20.5811 23.4244 19.3625 22.375 17.8731 22.375Z" fill="#2848BA"/>
	<path d="M23.9323 23.763V22.3413C22.4767 22.3413 21.2581 23.3907 20.9873 24.7785L23.9323 23.763Z" fill="#2848BA"/>
	<path d="M14.8942 25.3538C13.811 25.3538 10.9337 25.3538 8.90271 25.3538C8.90271 23.6952 10.2567 22.375 11.8816 22.375C13.5402 22.375 14.8942 23.6952 14.8942 25.3538Z" fill="#2848BA"/>
	<path d="M17.9407 22.375C16.8575 22.375 13.9802 22.375 11.9492 22.375C11.9492 20.7163 13.3032 19.3623 14.928 19.3623C16.5867 19.3623 17.9407 20.7163 17.9407 22.375Z" fill="#2848BA"/>
	<path d="M16.9252 26.1664C16.3835 25.6587 15.6727 25.354 14.8941 25.354C13.4047 25.354 12.1861 26.4372 11.9492 27.8928L16.9252 26.1664Z" fill="#2848BA"/>
	<path d="M23.8984 0L17.9407 2.47108L11.9492 0V13.3709H23.8984V0Z" fill="#CF62E6"/>
	<path d="M11.9492 27.8929L0 23.7632V13.3711H11.9492V27.8929Z" fill="#CF62E6"/>
	<path d="M11.9492 0L5.95771 2.47108L0 0V13.3709H11.9492V0Z" fill="#365FF6"/>
	<path fill-rule="evenodd" clip-rule="evenodd" d="M17.9406 9.5457C16.7897 9.5457 15.8419 10.392 15.8419 11.1705H20.0056C20.0056 10.2566 19.0916 9.5457 17.9406 9.5457ZM14.3187 4.70508V5.2467C14.3187 7.21002 15.9435 8.80099 17.9068 8.80099C19.8701 8.80099 21.4949 7.21002 21.4949 5.2467V4.70508H14.3187Z" fill="white"/>
	<path d="M11.9492 13.3709C9.78279 13.3709 4.0282 13.3709 0 13.3709C0 10.0536 2.67421 7.37939 5.99155 7.37939C9.27504 7.37939 11.9492 10.0874 11.9492 13.3709Z" fill="#2848BA"/>
	<path d="M6.80401 21.0887L10.2906 19.0577L9.20738 16.5527L4.02825 18.3807C3.859 18.4484 3.68974 18.5499 3.55434 18.6515C3.24968 18.313 2.67424 17.9406 1.62488 18.0422L1.69256 18.8546C2.60652 18.753 2.91119 19.0915 3.01274 19.2946C2.80963 19.7008 2.74196 20.2086 2.91121 20.6825C3.14816 21.4949 3.89286 22.0027 4.67142 22.0027C4.67142 22.0027 4.67141 22.0027 4.70526 22.0027C4.90836 22.4089 5.28071 22.6797 5.75461 22.6797C5.89001 22.6797 6.02544 22.6458 6.16084 22.612C6.77015 22.375 7.0748 21.698 6.83785 21.1225C6.804 21.1225 6.80401 21.1225 6.80401 21.0887ZM3.68975 20.4794C3.52049 19.9378 3.79131 19.3623 4.29907 19.1592L8.73347 17.6021L9.20738 18.7192L6.16084 20.5132C6.02544 20.4455 5.89002 20.4117 5.72077 20.4117C5.58537 20.4117 5.44998 20.4455 5.31458 20.4794C4.97608 20.6148 4.73913 20.8856 4.60373 21.2241C4.19753 21.1903 3.82515 20.9195 3.68975 20.4794Z" fill="white"/>
</svg>
