<svg width="24" height="29" viewBox="0 0 24 29" fill="none" xmlns="http://www.w3.org/2000/svg">
	<path d="M11.9492 28.3622L23.9322 24.2663V13.8403H11.9492V28.3622Z" fill="#365FF6"/>
	<path d="M23.9322 0.469238L17.9407 2.94031L11.9492 0.469238V13.8402H23.9322V0.469238Z" fill="#CA3829"/>
	<path d="M11.9492 28.3622L0 24.2663V13.8403H11.9492V28.3622Z" fill="#CA3829"/>
	<path d="M11.9492 0.469238L5.99151 2.94031L0 0.469238V13.8402H11.9492V0.469238Z" fill="#365FF6"/>
	<path d="M5.96816 4.66308L2.35388 8.27734L5.96818 11.8916L9.58246 8.27736L5.96816 4.66308Z" fill="#2848BA"/>
	<path d="M14.9391 13.8494L11.9471 16.8413L14.9391 19.8333L17.931 16.8413L14.9391 13.8494Z" fill="#2848BA"/>
	<path fill-rule="evenodd" clip-rule="evenodd" d="M23.9322 16.8192L20.9534 13.8403L17.9407 16.853L20.9196 19.8319L23.9322 16.8192Z" fill="#2848BA"/>
	<path fill-rule="evenodd" clip-rule="evenodd" d="M17.9407 22.8442L14.9618 19.8315L11.9492 22.8442L14.9618 25.8231L17.9407 22.8442Z" fill="#2848BA"/>
	<path fill-rule="evenodd" clip-rule="evenodd" d="M14.9619 25.8232L12.6262 28.1251L16.079 26.9403L14.9619 25.8232Z" fill="#2848BA"/>
	<path fill-rule="evenodd" clip-rule="evenodd" d="M17.9407 22.8442L20.5134 25.4169L21.7658 25.0107L23.9322 22.8104L20.9196 19.8315L17.9407 22.8442Z" fill="#2848BA"/>
	<path fill-rule="evenodd" clip-rule="evenodd" d="M6.32997 16.5483L4.8067 23.0476H5.61912L7.10855 16.5483H6.32997Z" fill="white"/>
	<path fill-rule="evenodd" clip-rule="evenodd" d="M8.02257 17.7671L7.41327 18.2748L8.6319 19.8997L7.51482 21.4229L8.09028 21.9307L9.5797 19.8997L8.02257 17.7671Z" fill="white"/>
	<path fill-rule="evenodd" clip-rule="evenodd" d="M3.92662 21.863L4.53592 21.3552L3.31731 19.6966L4.43437 18.1733L3.82507 17.6655L2.36951 19.6966L3.92662 21.863Z" fill="white"/>
	<path d="M17.9366 9.32956L16.692 10.5742L17.9366 11.8189L19.1813 10.5742L17.9366 9.32956Z" fill="white"/>
	<path fill-rule="evenodd" clip-rule="evenodd" d="M14.3525 4.86963V5.41125C14.3525 7.37457 15.9774 8.96554 17.9407 8.96554C19.904 8.96554 21.5288 7.37457 21.5288 5.41125V4.86963H14.3525Z" fill="white"/>
</svg>
